<svg width="1200" height="760" viewBox="0 0 1200 760" fill="none" xmlns="http://www.w3.org/2000/svg">
<defs>
<linearGradient id="sky" x1="0" y1="0" x2="1200" y2="760"><stop stop-color="#041021"/><stop offset=".45" stop-color="#0A2345"/><stop offset="1" stop-color="#02060E"/></linearGradient>
<radialGradient id="glow" cx="0" cy="0" r="1" gradientUnits="userSpaceOnUse" gradientTransform="translate(760 225) rotate(90) scale(310 380)"><stop stop-color="#39BDF8" stop-opacity=".65"/><stop offset="1" stop-color="#39BDF8" stop-opacity="0"/></radialGradient>
<filter id="shadow" x="-40%" y="-40%" width="180%" height="180%"><feDropShadow dx="0" dy="30" stdDeviation="25" flood-color="#000" flood-opacity=".7"/></filter>
<filter id="blur"><feGaussianBlur stdDeviation="23"/></filter>
</defs>
<rect width="1200" height="760" fill="url(#sky)"/>
<rect width="1200" height="760" fill="url(#glow)"/>
<circle cx="520" cy="192" r="20" fill="#FDE68A"/><rect x="514" y="192" width="12" height="330" rx="6" fill="#334155"/><circle cx="520" cy="192" r="50" fill="#F59E0B" opacity=".11"/>
<circle cx="815" cy="98" r="42" fill="#FDE68A"/><circle cx="797" cy="83" r="42" fill="#08213C" opacity=".82"/>
<g opacity=".92">
<rect x="585" y="240" width="48" height="205" rx="5" fill="#102541"/>
<rect x="670" y="170" width="62" height="275" rx="5" fill="#0B203B"/>
<rect x="888" y="210" width="54" height="238" rx="5" fill="#112844"/>
<rect x="1012" y="160" width="66" height="286" rx="5" fill="#0C203B"/>
<path d="M780 430S750 285 795 120C840 285 812 430 812 430H780Z" fill="#E7F8FF" opacity=".92"/>
<circle cx="795" cy="120" r="62" stroke="#E7F8FF" stroke-width="9" opacity=".92"/>
<path d="M733 120H857M755 164H835M768 208H822M779 255H811M787 303H803" stroke="#93C5FD" stroke-width="5" opacity=".96"/>
<path d="M795 58V430" stroke="#BFDBFE" stroke-width="6" opacity=".92"/>
</g>
<g opacity=".52">
<circle cx="610" cy="285" r="3" fill="#DBEAFE"/><circle cx="700" cy="238" r="3" fill="#DBEAFE"/><circle cx="920" cy="270" r="3" fill="#DBEAFE"/><circle cx="1040" cy="225" r="3" fill="#DBEAFE"/>
</g>
<path d="M0 464C150 392 260 420 360 462C500 522 616 468 748 412C890 352 1000 400 1200 360V760H0V464Z" fill="#050E1B"/>
<path d="M0 508C230 455 436 482 625 512C830 546 1015 520 1200 488" stroke="#1E40AF" stroke-width="9" opacity=".28"/>
<path d="M0 622C310 570 650 588 1200 623" stroke="#60A5FA" stroke-width="4" opacity=".18"/>
<ellipse cx="742" cy="552" rx="285" ry="44" fill="#60A5FA" opacity=".25" filter="url(#blur)"/>
<g filter="url(#shadow)" transform="translate(602 365) scale(1.20)">
<path d="M80 118C94 75 122 52 166 47H310C355 53 384 78 398 119L436 137C450 144 460 158 460 174V205H36V174C36 158 46 144 60 137L80 118Z" fill="#0F172A"/>
<path d="M123 66H300C333 70 356 91 370 122H75C92 90 105 71 123 66Z" fill="#1E3A8A"/>
<path d="M91 123H392L426 146H58L91 123Z" fill="#475569"/>
<rect x="94" y="154" width="300" height="39" rx="14" fill="#020617"/>
<circle cx="128" cy="203" r="40" fill="#020617"/><circle cx="128" cy="203" r="18" fill="#475569"/>
<circle cx="360" cy="203" r="40" fill="#020617"/><circle cx="360" cy="203" r="18" fill="#475569"/>
<circle cx="76" cy="166" r="20" fill="#FDE68A"/><circle cx="411" cy="166" r="20" fill="#FDE68A"/>
</g>
<g transform="translate(990 524)" filter="url(#shadow)">
<path d="M0 145L72 0L145 145H0Z" fill="#7F1D1D"/>
<path d="M24 126L72 30L121 126H24Z" fill="#EF4444"/>
<path d="M47 108L72 58L98 108H47Z" fill="#020617"/>
</g>
</svg>